<mxfile host="app.diagrams.net" modified="2022-11-19T13:30:30.926Z" agent="5.0 (Windows NT 10.0; Win64; x64) AppleWebKit/537.36 (KHTML, like Gecko) Chrome/107.0.0.0 Safari/537.36" etag="2pAKW-WcdBZVKfrkL-0B" version="20.5.3" type="github">
  <diagram id="FKY9q5YaNIA7VyUWQW0Q" name="페이지-1">
    <mxGraphModel dx="1185" dy="662" grid="1" gridSize="10" guides="1" tooltips="1" connect="1" arrows="1" fold="1" page="1" pageScale="1" pageWidth="827" pageHeight="1169" math="0" shadow="0">
      <root>
        <mxCell id="0" />
        <mxCell id="1" parent="0" />
        <mxCell id="SfXKoYXM-Osox2M1g44C-1" value="이용자" style="shape=umlActor;verticalLabelPosition=bottom;verticalAlign=top;html=1;outlineConnect=0;" vertex="1" parent="1">
          <mxGeometry x="30" y="280" width="20" height="40" as="geometry" />
        </mxCell>
        <mxCell id="SfXKoYXM-Osox2M1g44C-4" value="게시판 서비스" style="shape=umlFrame;whiteSpace=wrap;html=1;width=110;height=20;" vertex="1" parent="1">
          <mxGeometry x="90" y="120" width="600" height="550" as="geometry" />
        </mxCell>
        <mxCell id="SfXKoYXM-Osox2M1g44C-19" style="rounded=0;orthogonalLoop=1;jettySize=auto;html=1;entryX=1;entryY=0.3333333333333333;entryDx=0;entryDy=0;entryPerimeter=0;endArrow=none;endFill=0;" edge="1" parent="1" source="SfXKoYXM-Osox2M1g44C-5" target="SfXKoYXM-Osox2M1g44C-1">
          <mxGeometry relative="1" as="geometry" />
        </mxCell>
        <mxCell id="SfXKoYXM-Osox2M1g44C-5" value="회원가입" style="rounded=1;whiteSpace=wrap;html=1;arcSize=40;fontColor=#000000;fillColor=#ffffc0;strokeColor=#ff0000;" vertex="1" parent="1">
          <mxGeometry x="130" y="270" width="120" height="40" as="geometry" />
        </mxCell>
        <mxCell id="SfXKoYXM-Osox2M1g44C-21" style="edgeStyle=none;rounded=0;orthogonalLoop=1;jettySize=auto;html=1;entryX=1;entryY=0.3333333333333333;entryDx=0;entryDy=0;entryPerimeter=0;endArrow=none;endFill=0;exitX=0;exitY=0.5;exitDx=0;exitDy=0;" edge="1" parent="1" source="SfXKoYXM-Osox2M1g44C-7" target="SfXKoYXM-Osox2M1g44C-1">
          <mxGeometry relative="1" as="geometry" />
        </mxCell>
        <mxCell id="SfXKoYXM-Osox2M1g44C-28" style="edgeStyle=none;rounded=0;orthogonalLoop=1;jettySize=auto;html=1;exitX=1;exitY=0;exitDx=0;exitDy=0;entryX=0.5;entryY=1;entryDx=0;entryDy=0;dashed=1;endArrow=classic;endFill=1;" edge="1" parent="1" source="SfXKoYXM-Osox2M1g44C-7" target="SfXKoYXM-Osox2M1g44C-9">
          <mxGeometry relative="1" as="geometry" />
        </mxCell>
        <mxCell id="SfXKoYXM-Osox2M1g44C-40" style="edgeStyle=none;rounded=0;orthogonalLoop=1;jettySize=auto;html=1;exitX=1;exitY=0.5;exitDx=0;exitDy=0;entryX=0;entryY=0.5;entryDx=0;entryDy=0;endArrow=none;endFill=0;" edge="1" parent="1" source="SfXKoYXM-Osox2M1g44C-7" target="SfXKoYXM-Osox2M1g44C-37">
          <mxGeometry relative="1" as="geometry" />
        </mxCell>
        <mxCell id="SfXKoYXM-Osox2M1g44C-7" value="게시판 보기" style="rounded=1;whiteSpace=wrap;html=1;arcSize=40;fontColor=#000000;fillColor=#ffffc0;strokeColor=#ff0000;" vertex="1" parent="1">
          <mxGeometry x="130" y="370" width="120" height="40" as="geometry" />
        </mxCell>
        <mxCell id="SfXKoYXM-Osox2M1g44C-22" style="edgeStyle=none;rounded=0;orthogonalLoop=1;jettySize=auto;html=1;entryX=1;entryY=0.3333333333333333;entryDx=0;entryDy=0;entryPerimeter=0;endArrow=none;endFill=0;exitX=0;exitY=0.5;exitDx=0;exitDy=0;" edge="1" parent="1" source="SfXKoYXM-Osox2M1g44C-8" target="SfXKoYXM-Osox2M1g44C-1">
          <mxGeometry relative="1" as="geometry" />
        </mxCell>
        <mxCell id="SfXKoYXM-Osox2M1g44C-29" style="edgeStyle=none;rounded=0;orthogonalLoop=1;jettySize=auto;html=1;exitX=1;exitY=0;exitDx=0;exitDy=0;entryX=0.5;entryY=1;entryDx=0;entryDy=0;dashed=1;endArrow=classic;endFill=1;" edge="1" parent="1" source="SfXKoYXM-Osox2M1g44C-8" target="SfXKoYXM-Osox2M1g44C-9">
          <mxGeometry relative="1" as="geometry" />
        </mxCell>
        <mxCell id="SfXKoYXM-Osox2M1g44C-41" style="edgeStyle=none;rounded=0;orthogonalLoop=1;jettySize=auto;html=1;exitX=1;exitY=0.5;exitDx=0;exitDy=0;entryX=0;entryY=0.5;entryDx=0;entryDy=0;endArrow=none;endFill=0;" edge="1" parent="1" source="SfXKoYXM-Osox2M1g44C-8" target="SfXKoYXM-Osox2M1g44C-37">
          <mxGeometry relative="1" as="geometry">
            <Array as="points">
              <mxPoint x="350" y="490" />
              <mxPoint x="500" y="440" />
            </Array>
          </mxGeometry>
        </mxCell>
        <mxCell id="SfXKoYXM-Osox2M1g44C-8" value="게시글 보기" style="rounded=1;whiteSpace=wrap;html=1;arcSize=40;fontColor=#000000;fillColor=#ffffc0;strokeColor=#ff0000;" vertex="1" parent="1">
          <mxGeometry x="130" y="530" width="120" height="40" as="geometry" />
        </mxCell>
        <mxCell id="SfXKoYXM-Osox2M1g44C-20" style="edgeStyle=none;rounded=0;orthogonalLoop=1;jettySize=auto;html=1;entryX=1;entryY=0.3333333333333333;entryDx=0;entryDy=0;entryPerimeter=0;endArrow=none;endFill=0;exitX=0;exitY=0.5;exitDx=0;exitDy=0;" edge="1" parent="1" source="SfXKoYXM-Osox2M1g44C-9" target="SfXKoYXM-Osox2M1g44C-1">
          <mxGeometry relative="1" as="geometry" />
        </mxCell>
        <mxCell id="SfXKoYXM-Osox2M1g44C-23" value="&amp;lt;&amp;lt; include&amp;gt;&amp;gt;" style="edgeStyle=none;rounded=0;orthogonalLoop=1;jettySize=auto;html=1;endArrow=classic;endFill=1;dashed=1;" edge="1" parent="1" source="SfXKoYXM-Osox2M1g44C-9" target="SfXKoYXM-Osox2M1g44C-10">
          <mxGeometry relative="1" as="geometry">
            <Array as="points">
              <mxPoint x="470" y="180" />
            </Array>
          </mxGeometry>
        </mxCell>
        <mxCell id="SfXKoYXM-Osox2M1g44C-9" value="회원 로그인" style="rounded=1;whiteSpace=wrap;html=1;arcSize=40;fontColor=#000000;fillColor=#ffffc0;strokeColor=#ff0000;" vertex="1" parent="1">
          <mxGeometry x="260" y="160" width="120" height="40" as="geometry" />
        </mxCell>
        <mxCell id="SfXKoYXM-Osox2M1g44C-39" style="edgeStyle=none;rounded=0;orthogonalLoop=1;jettySize=auto;html=1;exitX=1;exitY=0.5;exitDx=0;exitDy=0;entryX=0;entryY=0.5;entryDx=0;entryDy=0;endArrow=none;endFill=0;" edge="1" parent="1" source="SfXKoYXM-Osox2M1g44C-10" target="SfXKoYXM-Osox2M1g44C-37">
          <mxGeometry relative="1" as="geometry" />
        </mxCell>
        <mxCell id="SfXKoYXM-Osox2M1g44C-10" value="인증" style="rounded=1;whiteSpace=wrap;html=1;arcSize=40;fontColor=#000000;fillColor=#ffffc0;strokeColor=#ff0000;" vertex="1" parent="1">
          <mxGeometry x="520" y="160" width="120" height="40" as="geometry" />
        </mxCell>
        <mxCell id="SfXKoYXM-Osox2M1g44C-24" value="&amp;lt;&amp;lt;extend&amp;gt;&amp;gt;" style="edgeStyle=none;rounded=0;orthogonalLoop=1;jettySize=auto;html=1;entryX=1;entryY=0.5;entryDx=0;entryDy=0;endArrow=classic;endFill=1;exitX=0;exitY=0.5;exitDx=0;exitDy=0;dashed=1;" edge="1" parent="1" source="SfXKoYXM-Osox2M1g44C-11" target="SfXKoYXM-Osox2M1g44C-9">
          <mxGeometry relative="1" as="geometry" />
        </mxCell>
        <mxCell id="SfXKoYXM-Osox2M1g44C-11" value="로그인 실패" style="rounded=1;whiteSpace=wrap;html=1;arcSize=40;fontColor=#000000;fillColor=#ffffc0;strokeColor=#ff0000;" vertex="1" parent="1">
          <mxGeometry x="520" y="240" width="120" height="40" as="geometry" />
        </mxCell>
        <mxCell id="SfXKoYXM-Osox2M1g44C-30" style="edgeStyle=none;rounded=0;orthogonalLoop=1;jettySize=auto;html=1;entryX=1;entryY=0.5;entryDx=0;entryDy=0;dashed=1;endArrow=classic;endFill=1;" edge="1" parent="1" source="SfXKoYXM-Osox2M1g44C-12" target="SfXKoYXM-Osox2M1g44C-7">
          <mxGeometry relative="1" as="geometry" />
        </mxCell>
        <mxCell id="SfXKoYXM-Osox2M1g44C-12" value="게시판 정렬" style="rounded=1;whiteSpace=wrap;html=1;arcSize=40;fontColor=#000000;fillColor=#ffffc0;strokeColor=#ff0000;" vertex="1" parent="1">
          <mxGeometry x="354" y="320" width="120" height="40" as="geometry" />
        </mxCell>
        <mxCell id="SfXKoYXM-Osox2M1g44C-31" style="edgeStyle=none;rounded=0;orthogonalLoop=1;jettySize=auto;html=1;exitX=0;exitY=0.5;exitDx=0;exitDy=0;entryX=1;entryY=0.5;entryDx=0;entryDy=0;dashed=1;endArrow=classic;endFill=1;" edge="1" parent="1" source="SfXKoYXM-Osox2M1g44C-13" target="SfXKoYXM-Osox2M1g44C-7">
          <mxGeometry relative="1" as="geometry" />
        </mxCell>
        <mxCell id="SfXKoYXM-Osox2M1g44C-13" value="게시판 검색" style="rounded=1;whiteSpace=wrap;html=1;arcSize=40;fontColor=#000000;fillColor=#ffffc0;strokeColor=#ff0000;" vertex="1" parent="1">
          <mxGeometry x="354" y="405" width="120" height="40" as="geometry" />
        </mxCell>
        <mxCell id="SfXKoYXM-Osox2M1g44C-33" style="edgeStyle=none;rounded=0;orthogonalLoop=1;jettySize=auto;html=1;exitX=0;exitY=0.5;exitDx=0;exitDy=0;entryX=1;entryY=0.5;entryDx=0;entryDy=0;dashed=1;endArrow=classic;endFill=1;" edge="1" parent="1" source="SfXKoYXM-Osox2M1g44C-16" target="SfXKoYXM-Osox2M1g44C-8">
          <mxGeometry relative="1" as="geometry" />
        </mxCell>
        <mxCell id="SfXKoYXM-Osox2M1g44C-42" style="edgeStyle=none;rounded=0;orthogonalLoop=1;jettySize=auto;html=1;exitX=1;exitY=0.5;exitDx=0;exitDy=0;entryX=0;entryY=0.5;entryDx=0;entryDy=0;endArrow=none;endFill=0;" edge="1" parent="1" source="SfXKoYXM-Osox2M1g44C-16" target="SfXKoYXM-Osox2M1g44C-37">
          <mxGeometry relative="1" as="geometry" />
        </mxCell>
        <mxCell id="SfXKoYXM-Osox2M1g44C-16" value="게시글 쓰기, 수정, 삭제" style="rounded=1;whiteSpace=wrap;html=1;arcSize=40;fontColor=#000000;fillColor=#ffffc0;strokeColor=#ff0000;" vertex="1" parent="1">
          <mxGeometry x="344" y="510" width="140" height="40" as="geometry" />
        </mxCell>
        <mxCell id="SfXKoYXM-Osox2M1g44C-35" style="edgeStyle=none;rounded=0;orthogonalLoop=1;jettySize=auto;html=1;exitX=0;exitY=0.5;exitDx=0;exitDy=0;dashed=1;endArrow=classic;endFill=1;entryX=1;entryY=0.5;entryDx=0;entryDy=0;" edge="1" parent="1" source="SfXKoYXM-Osox2M1g44C-17" target="SfXKoYXM-Osox2M1g44C-8">
          <mxGeometry relative="1" as="geometry">
            <mxPoint x="276.8571428571429" y="570" as="targetPoint" />
          </mxGeometry>
        </mxCell>
        <mxCell id="SfXKoYXM-Osox2M1g44C-43" style="edgeStyle=none;rounded=0;orthogonalLoop=1;jettySize=auto;html=1;exitX=1;exitY=0.5;exitDx=0;exitDy=0;entryX=0;entryY=0.5;entryDx=0;entryDy=0;endArrow=none;endFill=0;" edge="1" parent="1" source="SfXKoYXM-Osox2M1g44C-17" target="SfXKoYXM-Osox2M1g44C-37">
          <mxGeometry relative="1" as="geometry" />
        </mxCell>
        <mxCell id="SfXKoYXM-Osox2M1g44C-17" value="댓글 보기, 쓰기,&lt;br&gt;&amp;nbsp;수정, 삭제" style="rounded=1;whiteSpace=wrap;html=1;arcSize=40;fontColor=#000000;fillColor=#ffffc0;strokeColor=#ff0000;" vertex="1" parent="1">
          <mxGeometry x="344" y="600" width="140" height="40" as="geometry" />
        </mxCell>
        <mxCell id="SfXKoYXM-Osox2M1g44C-37" value="DB" style="html=1;dropTarget=0;" vertex="1" parent="1">
          <mxGeometry x="740" y="300" width="63" height="80" as="geometry" />
        </mxCell>
        <mxCell id="SfXKoYXM-Osox2M1g44C-44" value="" style="whiteSpace=wrap;html=1;" vertex="1" parent="1">
          <mxGeometry x="350" y="390" width="120" height="60" as="geometry" />
        </mxCell>
      </root>
    </mxGraphModel>
  </diagram>
</mxfile>
